# File created by Blade
# Date/Time:  Fri Jan 16 17:25:32 2015
#---------------------------------------------------------
:version 1.10
:name HOM
:units
  mass 1.0
  length 1.000000
  angle deg
:documentation
     Acclaim Skeleton File
:root
   axis xyz
   order TX TY TZ RX RY RZ
   position 0.000000 0.000000 0.000000
   orientation 0 0 0
:bonedata
   begin
      id 1
      name Spine_dum
      direction 0.000000 1.000000 0.000000
      length 7.170412
      axis 0.0 0.0 0.0 xyz
   end
   begin
      id 2
      name LeftUpLeg_dum
      direction 1.000000 0.000000 0.000000
      length 4.318350
      axis 0.0 0.0 0.0 xyz
   end
   begin
      id 3
      name RightUpLeg_dum
      direction -1.000000 0.000000 0.000000
      length 4.318350
      axis 0.0 0.0 0.0 xyz
   end
   begin
      id 4
      name Spine
      direction 0.000000 1.000000 0.000000
      length 0.000000
      axis 0.0 0.0 0.0 xyz
      dof rx ry rz
   end
   begin
      id 5
      name Spine_dum1
      direction 0.000000 1.000000 0.000000
      length 14.276153
      axis 0.0 0.0 0.0 xyz
   end
   begin
      id 6
      name Spine_dum2
      direction 0.000000 1.000000 0.000000
      length 10.718243
      axis 0.0 0.0 0.0 xyz
   end
   begin
      id 7
      name Spine_dum3
      direction 0.000000 1.000000 0.000000
      length 10.718243
      axis 0.0 0.0 0.0 xyz
   end
   begin
      id 8
      name Head
      direction 0.000000 1.000000 0.000000
      length 4.527550
      axis 0.0 0.0 0.0 xyz
      dof rx ry rz
   end
   begin
      id 9
      name LeftShoulder
      direction 1.000000 0.000000 0.000000
      length 7.058872
      axis 0.0 0.0 -90.0 xyz
      dof rx ry rz
   end
   begin
      id 10
      name LeftArm
      direction 1.000000 0.000000 0.000000
      length 10.955525
      axis 0.0 0.0 -90.0 xyz
      dof rx ry rz
   end
   begin
      id 11
      name LeftForeArm
      direction 1.000000 0.000000 0.000000
      length 8.193716
      axis 0.0 0.0 -90.0 xyz
      dof ry rz rx
   end
   begin
      id 12
      name LeftHand
      direction 0.000000 0.000000 0.000000
      length 0.000000
      axis 0.0 0.0 -90.0 xyz
      dof rx ry rz
   end
   begin
      id 13
      name LeftHand_dum1
      direction 0.000000 0.000000 0.000000
      length 0.000000
      axis 0.0 0.0 -90.0 xyz
   end
   begin
      id 14
      name LeftHand_dum2
      direction 1.000000 0.000000 0.000000
      length 3.937000
      axis 0.0 0.0 -90.0 xyz
   end
   begin
      id 15
      name LeftHandThumb1
      direction 0.000000 0.000000 1.000000
      length 3.937000
      axis 0.0 0.0 -90.0 xyz
      dof rx rz ry
   end
   begin
      id 16
      name RightShoulder
      direction -1.000000 0.000000 0.000000
      length 7.058872
      axis 0.0 0.0 90.0 xyz
      dof rx ry rz
   end
   begin
      id 17
      name RightArm
      direction -1.000000 0.000000 0.000000
      length 10.955525
      axis 0.0 0.0 90.0 xyz
      dof rx ry rz
   end
   begin
      id 18
      name RightForeArm
      direction -1.000000 0.000000 0.000000
      length 8.193716
      axis 0.0 0.0 90.0 xyz
      dof ry rz rx
   end
   begin
      id 19
      name RightHand
      direction 0.000000 0.000000 0.000000
      length 0.000000
      axis 0.0 0.0 90.0 xyz
      dof rx ry rz
   end
   begin
      id 20
      name RightHand_dum1
      direction 0.000000 0.000000 0.000000
      length 0.000000
      axis 0.0 0.0 90.0 xyz
   end
   begin
      id 21
      name RightHand_dum2
      direction -1.000000 0.000000 0.000000
      length 3.937000
      axis 0.0 0.0 90.0 xyz
   end
   begin
      id 22
      name RightHandThumb1
      direction 0.000000 0.000000 1.000000
      length 3.937000
      axis 0.0 0.0 90.0 xyz
      dof rx rz ry
   end
   begin
      id 23
      name LeftUpLeg
      direction 0.000000 -1.000000 0.000000
      length 17.323638
      axis 0.0 0.0 0.0 xyz
      dof rx ry rz
   end
   begin
      id 24
      name LeftLeg
      direction 0.000000 -1.000000 0.000000
      length 16.270368
      axis 0.0 0.0 0.0 xyz
      dof rx ry rz
   end
   begin
      id 25
      name LeftFoot
      direction 0.000000 -0.258819 0.965926
      length 4.922846
      axis 15.0 0.0 0.0 xyz
      dof rx ry rz
   end
   begin
      id 26
      name LeftToeBase
      direction 0.000000 0.000000 1.000000
      length 2.952750
      axis 0.0 0.0 0.0 xyz
      dof rx ry rz
   end
   begin
      id 27
      name RightUpLeg
      direction 0.000000 -1.000000 0.000000
      length 17.323638
      axis 0.0 0.0 0.0 xyz
      dof rx ry rz
   end
   begin
      id 28
      name RightLeg
      direction 0.000000 -1.000000 0.000000
      length 16.270368
      axis 0.0 0.0 0.0 xyz
      dof rx ry rz
   end
   begin
      id 29
      name RightFoot
      direction 0.000000 -0.258819 0.965926
      length 4.922846
      axis 15.0 0.0 0.0 xyz
      dof rx ry rz
   end
   begin
      id 30
      name RightToeBase
      direction 0.000000 0.000000 1.000000
      length 2.952750
      axis 0.0 0.0 0.0 xyz
      dof rx ry rz
   end
:hierarchy
   begin
      root Spine_dum LeftUpLeg_dum RightUpLeg_dum
      Spine_dum Spine
      LeftUpLeg_dum LeftUpLeg
      RightUpLeg_dum RightUpLeg
      Spine Spine_dum1 Spine_dum2 Spine_dum3
      Spine_dum1 Head
      Spine_dum2 LeftShoulder
      Spine_dum3 RightShoulder
      LeftShoulder LeftArm
      LeftArm LeftForeArm
      LeftForeArm LeftHand
      LeftHand LeftHand_dum1 LeftHand_dum2
      LeftHand_dum1 LeftHandThumb1
      RightShoulder RightArm
      RightArm RightForeArm
      RightForeArm RightHand
      RightHand RightHand_dum1 RightHand_dum2
      RightHand_dum1 RightHandThumb1
      LeftUpLeg LeftLeg
      LeftLeg LeftFoot
      LeftFoot LeftToeBase
      RightUpLeg RightLeg
      RightLeg RightFoot
      RightFoot RightToeBase
   end

# File created by Blade
# Date/Time:  Fri Jan 16 17:25:22 2015
# Frame Rate: 120.000 fps
#------------------------------------------------------
:FULLY-SPECIFIED
:DEGREES
525
root -5.832808 35.294965 -11.005099 -5.387250 -6.908351 -5.498925
Spine 4.386885 13.386925 10.175154
Head 6.308944 -0.802584 -7.898492
LeftShoulder -15.662815 14.985262 -16.217226
LeftArm 30.805321 24.542130 -62.927243
LeftForeArm 15.162583 -0.000000 12.558090
LeftHand 1.237389 -0.000000 -8.918376
LeftHandThumb1 -26.253704 0.000000 33.147579
RightShoulder 11.780068 6.536227 -3.553837
RightArm 70.774954 -59.246240 24.248537
RightForeArm -24.199695 -0.000000 21.118894
RightHand 1.360196 -0.000000 8.429731
RightHandThumb1 -24.326973 -0.000000 -32.862282
LeftUpLeg 13.635794 14.829235 8.203470
LeftLeg -8.112451 -0.000000 0.000000
LeftFoot -14.432692 28.658290 -8.400781
LeftToeBase 22.707888 -0.000000 -0.000000
RightUpLeg 10.144122 -6.403688 2.208800
RightLeg -4.077006 -0.000000 0.000000
RightFoot -3.438269 -23.299688 4.890539
RightToeBase 14.004436 -0.000000 -0.000000
526
root -5.843538 35.293810 -11.005944 -5.327552 -6.824668 -5.500007
Spine 4.261450 13.587260 10.119810
Head 6.353187 -0.998595 -7.860498
LeftShoulder -15.576504 15.006883 -16.137172
LeftArm 30.779306 24.476868 -62.950301
LeftForeArm 15.122485 -0.000000 12.540235
LeftHand 1.278468 0.000000 -8.835305
LeftHandThumb1 -26.253704 0.000000 33.147579
RightShoulder 11.670296 6.543766 -3.419922
RightArm 71.856698 -59.162011 23.440935
RightForeArm -23.786976 -0.000000 21.693501
RightHand 1.379651 0.000000 7.983686
RightHandThumb1 -24.326973 -0.000000 -32.862282
LeftUpLeg 13.537735 14.809588 8.204523
LeftLeg -8.077246 -0.000000 0.000000
LeftFoot -14.432030 28.605051 -8.370205
LeftToeBase 22.724673 -0.000000 -0.000000
RightUpLeg 10.079427 -6.420280 2.237089
RightLeg -4.048458 -0.000000 0.000000
RightFoot -3.488958 -23.362987 4.876890
RightToeBase 14.044929 -0.000000 -0.000000
527
root -5.849854 35.293052 -11.001002 -5.346987 -6.704973 -5.518687
Spine 4.243621 13.721670 10.143941
Head 6.367605 -1.207797 -7.902720
LeftShoulder -15.500506 15.001974 -16.089685
LeftArm 30.753810 24.421447 -62.977164
LeftForeArm 15.020110 0.000000 12.515083
LeftHand 1.261330 -0.000000 -8.863611
LeftHandThumb1 -26.253704 0.000000 33.147579
RightShoulder 11.548318 6.562410 -3.320011
RightArm 73.100969 -59.088722 22.410189
RightForeArm -23.488345 -0.000000 22.355920
RightHand 1.413010 -0.000000 7.619610
RightHandThumb1 -24.326973 -0.000000 -32.862282
LeftUpLeg 13.509249 14.831135 8.243030
LeftLeg -8.021227 -0.000000 0.000000
LeftFoot -14.445744 28.503935 -8.296304
LeftToeBase 22.739883 -0.000000 -0.000000
RightUpLeg 10.119193 -6.488218 2.254333
RightLeg -4.043652 -0.000000 0.000000
RightFoot -3.511570 -23.397421 4.884720
RightToeBase 14.032286 -0.000000 -0.000000
528
root -5.853588 35.291946 -10.990284 -5.400534 -6.639055 -5.542038
Spine 4.263878 13.873807 10.201197
Head 6.388815 -1.354140 -7.949406
LeftShoulder -15.449979 15.029197 -16.049782
LeftArm 30.755726 24.396809 -63.003778
LeftForeArm 14.893151 -0.000000 12.454109
LeftHand 1.047959 0.000000 -9.346065
LeftHandThumb1 -26.253704 0.000000 33.147579
RightShoulder 11.429505 6.544743 -3.244518
RightArm 74.540460 -59.030304 21.172796
RightForeArm -23.076583 -0.000000 23.042631
RightHand 1.285215 -0.000000 7.116532
RightHandThumb1 -24.326973 -0.000000 -32.862282
LeftUpLeg 13.566218 14.806093 8.286166
LeftLeg -8.018096 -0.000000 0.000000
LeftFoot -14.457744 28.478376 -8.245920
LeftToeBase 22.791604 -0.000000 -0.000000
RightUpLeg 10.203560 -6.514478 2.269388
RightLeg -4.048980 -0.000000 0.000000
RightFoot -3.544464 -23.415387 4.950789
RightToeBase 14.002309 -0.000000 -0.000000
529
root -5.856291 35.292474 -10.990966 -5.363012 -6.482016 -5.512035
Spine 4.155425 13.959342 10.135797
Head 6.429329 -1.470493 -7.947232
LeftShoulder -15.358652 15.049240 -15.995566
LeftArm 30.712595 24.327855 -63.017592
LeftForeArm 14.648269 -0.000000 12.402069
LeftHand 1.095063 0.000000 -9.221736
LeftHandThumb1 -26.253704 0.000000 33.147579
RightShoulder 11.311576 6.425409 -3.111898
RightArm 76.060927 -58.904921 19.799787
RightForeArm -22.689829 0.000000 23.725044
RightHand 1.271713 -0.000000 6.757522
RightHandThumb1 -24.326973 -0.000000 -32.862282
LeftUpLeg 13.481671 14.652035 8.224267
LeftLeg -8.020390 -0.000000 0.000000
LeftFoot -14.432692 28.477364 -8.277880
LeftToeBase 22.758809 -0.000000 -0.000000
RightUpLeg 10.165019 -6.618201 2.239647
RightLeg -4.025134 -0.000000 0.000000
RightFoot -3.575407 -23.453358 4.918168
RightToeBase 13.992067 -0.000000 -0.000000
530
root -5.860832 35.291455 -10.985944 -5.377502 -6.357543 -5.512381
Spine 4.130971 14.058714 10.126685
Head 6.417936 -1.544720 -7.944418
LeftShoulder -15.276291 15.070503 -15.937086
LeftArm 30.669669 24.238085 -63.067949
LeftForeArm 14.531655 -0.000000 12.383382
LeftHand 1.017409 -0.000000 -9.124974
LeftHandThumb1 -26.253704 0.000000 33.147579
RightShoulder 11.200614 6.414153 -2.999265
RightArm 77.306102 -58.853193 18.705002
RightForeArm -22.541338 -0.000000 24.503428
RightHand 1.283177 -0.000000 6.675128
RightHandThumb1 -24.326973 -0.000000 -32.862282
LeftUpLeg 13.466481 14.617916 8.231538
LeftLeg -8.011509 -0.000000 0.000000
LeftFoot -14.422111 28.416274 -8.251891
LeftToeBase 22.784942 -0.000000 -0.000000
RightUpLeg 10.195604 -6.682974 2.238481
RightLeg -4.014727 -0.000000 0.000000
RightFoot -3.616981 -23.491308 4.933646
RightToeBase 14.027374 -0.000000 -0.000000
531
root -5.868480 35.290842 -10.978193 -5.397667 -6.249528 -5.528202
Spine 4.109585 14.115981 10.124498
Head 6.404893 -1.574528 -7.929333
LeftShoulder -15.252931 15.057741 -15.874120
LeftArm 30.594612 24.145132 -63.154443
LeftForeArm 14.376512 -0.000000 12.326051
LeftHand 1.050918 0.000000 -8.939691
LeftHandThumb1 -26.253704 0.000000 33.147579
RightShoulder 11.145849 6.361885 -2.869779
RightArm 78.330063 -58.771368 17.848300
RightForeArm -22.679224 -0.000000 25.298184
RightHand 1.376089 -0.000000 6.637022
RightHandThumb1 -24.326973 -0.000000 -32.862282
LeftUpLeg 13.437521 14.733517 8.283274
LeftLeg -7.934356 -0.000000 0.000000
LeftFoot -14.440949 28.250425 -8.165500
LeftToeBase 22.845366 -0.000000 -0.000000
RightUpLeg 10.235773 -6.713358 2.260975
RightLeg -4.004232 -0.000000 0.000000
RightFoot -3.658496 -23.555779 4.966895
RightToeBase 14.014286 -0.000000 -0.000000
532
root -5.869579 35.291594 -10.978341 -5.366247 -6.066074 -5.504022
Spine 4.023176 14.111739 10.070035
Head 6.407802 -1.612196 -7.942995
LeftShoulder -15.202760 15.085778 -15.847008
LeftArm 30.565867 24.053948 -63.172906
LeftForeArm 14.137779 -0.000000 12.272126
LeftHand 1.055965 -0.000000 -8.940558
LeftHandThumb1 -26.253704 0.000000 33.147579
RightShoulder 11.093469 6.367126 -2.744414
RightArm 79.031558 -58.763401 17.348670
RightForeArm -23.141265 -0.000000 26.066603
RightHand 1.464843 -0.000000 6.430318
RightHandThumb1 -24.326973 -0.000000 -32.862282
LeftUpLeg 13.322753 14.702503 8.243343
LeftLeg -7.872402 -0.000000 0.000000
LeftFoot -14.415079 28.140843 -8.110538
LeftToeBase 22.837157 -0.000000 -0.000000
RightUpLeg 10.207471 -6.823420 2.233040
RightLeg -3.980893 -0.000000 0.000000
RightFoot -3.709871 -23.605617 4.998551
RightToeBase 14.033803 -0.000000 -0.000000
533
root -5.874233 35.289598 -10.964722 -5.427020 -6.005921 -5.534114
Spine 4.057716 14.158131 10.131862
Head 6.400685 -1.610381 -7.987941
LeftShoulder -15.213835 15.084688 -15.807649
LeftArm 30.506167 23.985190 -63.257567
LeftForeArm 13.934459 -0.000000 12.238711
LeftHand 0.992755 0.000000 -8.827917
LeftHandThumb1 -26.253704 0.000000 33.147579
RightShoulder 11.035685 6.279839 -2.665843
RightArm 80.180270 -58.676122 16.340602
RightForeArm -23.165239 -0.000000 26.912537
RightHand 1.763253 -0.000000 6.227753
RightHandThumb1 -24.326973 -0.000000 -32.862282
LeftUpLeg 13.414211 14.642264 8.293315
LeftLeg -7.909229 -0.000000 0.000000
LeftFoot -14.430829 28.149941 -8.076760
LeftToeBase 22.899696 -0.000000 -0.000000
RightUpLeg 10.296321 -6.816325 2.259617
RightLeg -3.969984 -0.000000 0.000000
RightFoot -3.745461 -23.659322 5.007495
RightToeBase 14.023360 -0.000000 -0.000000
534
root -5.874612 35.288479 -10.957912 -5.443744 -5.914438 -5.533555
Spine 4.050881 14.179723 10.144449
Head 6.377013 -1.647791 -8.030207
LeftShoulder -15.217800 15.063729 -15.773393
LeftArm 30.427750 23.895526 -63.342689
LeftForeArm 13.920488 0.000000 12.222979
LeftHand 1.017335 -0.000000 -8.310459
LeftHandThumb1 -26.253704 0.000000 33.147579
RightShoulder 10.994111 6.170811 -2.552614
RightArm 81.179261 -58.568974 15.449758
RightForeArm -23.441245 -0.000000 27.770011
RightHand 1.889097 -0.000000 5.925079
RightHandThumb1 -24.326973 -0.000000 -32.862282
LeftUpLeg 13.417396 14.611001 8.293412
LeftLeg -7.908859 -0.000000 0.000000
LeftFoot -14.438207 28.102741 -8.078217
LeftToeBase 22.881934 -0.000000 -0.000000
RightUpLeg 10.325565 -6.843181 2.254728
RightLeg -3.953320 -0.000000 0.000000
RightFoot -3.794706 -23.710584 5.042038
RightToeBase 14.004879 -0.000000 -0.000000
535
root -5.874740 35.287989 -10.953347 -5.442882 -5.812750 -5.533841
Spine 4.025890 14.170266 10.148708
Head 6.355286 -1.644902 -8.061873
LeftShoulder -15.220130 15.090420 -15.744548
LeftArm 30.383264 23.807444 -63.428978
LeftForeArm 13.602242 -0.000000 12.150010
LeftHand 1.008775 -0.000000 -8.582062
LeftHandThumb1 -26.253704 0.000000 33.147579
RightShoulder 10.962785 6.068385 -2.457171
RightArm 82.158027 -58.495879 14.577913
RightForeArm -23.644051 0.000000 28.629417
RightHand 2.139994 -0.000000 5.998377
RightHandThumb1 -24.326973 -0.000000 -32.862282
LeftUpLeg 13.385506 14.564042 8.285432
LeftLeg -7.886818 -0.000000 0.000000
LeftFoot -14.437047 28.077215 -8.022774
LeftToeBase 22.920624 -0.000000 -0.000000
RightUpLeg 10.329292 -6.884977 2.249477
RightLeg -3.927006 -0.000000 0.000000
RightFoot -3.832636 -23.745683 5.068584
RightToeBase 13.995722 -0.000000 -0.000000
536
root -5.874024 35.287380 -10.948384 -5.461617 -5.706880 -5.531567
Spine 4.034037 14.136432 10.161609
Head 6.313450 -1.631935 -8.103165
LeftShoulder -15.230107 15.092709 -15.733403
LeftArm 30.317904 23.724204 -63.508083
LeftForeArm 13.451194 -0.000000 12.126015
LeftHand 0.883699 -0.000000 -8.500660
LeftHandThumb1 -26.253704 0.000000 33.147579
RightShoulder 10.949566 5.934618 -2.373475
RightArm 83.062700 -58.381334 13.786298
RightForeArm -23.950220 -0.000000 29.497411
RightHand 2.247542 -0.000000 5.987277
RightHandThumb1 -24.326973 -0.000000 -32.862282
LeftUpLeg 13.377504 14.490967 8.273350
LeftLeg -7.875718 -0.000000 0.000000
LeftFoot -14.431723 28.072103 -7.987590
LeftToeBase 22.925206 -0.000000 -0.000000
RightUpLeg 10.356934 -6.944774 2.236366
RightLeg -3.907672 -0.000000 0.000000
RightFoot -3.857148 -23.780794 5.073658
RightToeBase 14.006539 -0.000000 -0.000000
